<svg width="28" height="28" viewBox="0 0 28 28" fill="none" xmlns="http://www.w3.org/2000/svg">
<path d="M25.7363 0.849971L26.4738 1.58747C27.49 2.60497 27.3363 4.40872 26.1275 5.61622L10.9188 20.825L5.99126 22.6275C5.37251 22.855 4.77001 22.56 4.64751 21.9712C4.60624 21.7576 4.62573 21.5368 4.70375 21.3337L6.54125 16.3637L21.7075 1.19622C22.9163 -0.0112795 24.72 -0.167529 25.7363 0.849971ZM10.255 2.36247C10.4192 2.36247 10.5817 2.3948 10.7334 2.45762C10.885 2.52044 11.0228 2.61251 11.1389 2.72859C11.255 2.84466 11.347 2.98246 11.4099 3.13412C11.4727 3.28577 11.505 3.44832 11.505 3.61247C11.505 3.77662 11.4727 3.93917 11.4099 4.09082C11.347 4.24248 11.255 4.38028 11.1389 4.49635C11.0228 4.61243 10.885 4.7045 10.7334 4.76732C10.5817 4.83014 10.4192 4.86247 10.255 4.86247H5.255C4.59196 4.86247 3.95608 5.12586 3.48724 5.5947C3.0184 6.06354 2.755 6.69943 2.755 7.36247V22.3625C2.755 23.0255 3.0184 23.6614 3.48724 24.1302C3.95608 24.5991 4.59196 24.8625 5.255 24.8625H20.255C20.918 24.8625 21.5539 24.5991 22.0228 24.1302C22.4916 23.6614 22.755 23.0255 22.755 22.3625V17.3625C22.755 17.031 22.8867 16.713 23.1211 16.4786C23.3555 16.2442 23.6735 16.1125 24.005 16.1125C24.3365 16.1125 24.6545 16.2442 24.8889 16.4786C25.1233 16.713 25.255 17.031 25.255 17.3625V22.3625C25.255 23.6886 24.7282 24.9603 23.7905 25.898C22.8529 26.8357 21.5811 27.3625 20.255 27.3625H5.255C3.92892 27.3625 2.65715 26.8357 1.71947 25.898C0.781789 24.9603 0.255005 23.6886 0.255005 22.3625V7.36247C0.255005 6.03639 0.781789 4.76462 1.71947 3.82694C2.65715 2.88925 3.92892 2.36247 5.255 2.36247H10.255Z" fill="white"/>
</svg>
